HIERARCHY
ROOT Hips
{
	OFFSET 0.00000 0.00000 0.00000
	CHANNELS 6 Xposition Yposition Zposition Zrotation Yrotation Xrotation 
	JOINT LHipJoint
	{
		OFFSET 0 0 0
		CHANNELS 3 Zrotation Yrotation Xrotation
		JOINT LeftUpLeg
		{
			OFFSET 1.65412 -1.54119 0.76744
			CHANNELS 3 Zrotation Yrotation Xrotation
			JOINT LeftLeg
			{
				OFFSET 2.19550 -6.03209 0.00000
				CHANNELS 3 Zrotation Yrotation Xrotation
				JOINT LeftFoot
				{
					OFFSET 2.38814 -6.56138 0.00000
					CHANNELS 3 Zrotation Yrotation Xrotation
					JOINT LeftToeBase
					{
						OFFSET 0.17337 -0.47632 1.75875
						CHANNELS 3 Zrotation Yrotation Xrotation
						End Site
						{
							OFFSET 0.00000 -0.00000 0.92050
						}
					}
				}
			}
		}
	}
	JOINT RHipJoint
	{
		OFFSET 0 0 0
		CHANNELS 3 Zrotation Yrotation Xrotation
		JOINT RightUpLeg
		{
			OFFSET -1.40291 -1.54119 0.76744
			CHANNELS 3 Zrotation Yrotation Xrotation
			JOINT RightLeg
			{
				OFFSET -2.22156 -6.10370 0.00000
				CHANNELS 3 Zrotation Yrotation Xrotation
				JOINT RightFoot
				{
					OFFSET -2.46840 -6.78188 0.00000
					CHANNELS 3 Zrotation Yrotation Xrotation
					JOINT RightToeBase
					{
						OFFSET -0.15659 -0.43024 1.84117
						CHANNELS 3 Zrotation Yrotation Xrotation
						End Site
						{
							OFFSET -0.00000 -0.00000 0.95587
						}
					}
				}
			}
		}
	}
	JOINT LowerBack
	{
		OFFSET 0 0 0
		CHANNELS 3 Zrotation Yrotation Xrotation
		JOINT Spine
		{
			OFFSET -0.01936 1.82120 -0.32061
			CHANNELS 3 Zrotation Yrotation Xrotation
			JOINT Spine1
			{
				OFFSET -0.00532 1.85767 -0.00071
				CHANNELS 3 Zrotation Yrotation Xrotation
				JOINT Neck
				{
					OFFSET 0 0 0
					CHANNELS 3 Zrotation Yrotation Xrotation
					JOINT Neck1
					{
						OFFSET -0.10687 1.58194 0.10810
						CHANNELS 3 Zrotation Yrotation Xrotation
						JOINT Head
						{
							OFFSET 0.15346 1.57382 -0.25612
							CHANNELS 3 Zrotation Yrotation Xrotation
							End Site
							{
								OFFSET 0.05334 1.61251 -0.10513
							}
						}
					}
				}
				JOINT LeftShoulder
				{
					OFFSET 0 0 0
					CHANNELS 3 Zrotation Yrotation Xrotation
					JOINT LeftArm
					{
						OFFSET 2.85758 0.89498 -0.01485
						CHANNELS 3 Zrotation Yrotation Xrotation
						JOINT LeftForeArm
						{
							OFFSET 4.79185 -0.00000 -0.00000
							CHANNELS 3 Zrotation Yrotation Xrotation
							JOINT LeftHand
							{
								OFFSET 2.65553 -0.00000 0.00000
								CHANNELS 3 Zrotation Yrotation Xrotation
								JOINT LeftFingerBase
								{
									OFFSET 0 0 0
									CHANNELS 3 Zrotation Yrotation Xrotation
									JOINT LeftHandIndex1
									{
										OFFSET 0.74390 -0.00000 0.00000
										CHANNELS 3 Zrotation Yrotation Xrotation
										End Site
										{
											OFFSET 0.59975 -0.00000 0.00000
										}
									}
								}
								JOINT LThumb
								{
									OFFSET 0 0 0
									CHANNELS 3 Zrotation Yrotation Xrotation
									End Site
									{
										OFFSET 0.60891 -0.00000 0.60891
									}
								}
							}
						}
					}
				}
				JOINT RightShoulder
				{
					OFFSET 0 0 0
					CHANNELS 3 Zrotation Yrotation Xrotation
					JOINT RightArm
					{
						OFFSET -2.93906 0.88031 0.02490
						CHANNELS 3 Zrotation Yrotation Xrotation
						JOINT RightForeArm
						{
							OFFSET -4.77254 -0.00000 -0.00000
							CHANNELS 3 Zrotation Yrotation Xrotation
							JOINT RightHand
							{
								OFFSET -2.75995 -0.00000 -0.00000
								CHANNELS 3 Zrotation Yrotation Xrotation
								JOINT RightFingerBase
								{
									OFFSET 0 0 0
									CHANNELS 3 Zrotation Yrotation Xrotation
									JOINT RightHandIndex1
									{
										OFFSET -0.70162 -0.00000 0.00000
										CHANNELS 3 Zrotation Yrotation Xrotation
										End Site
										{
											OFFSET -0.56566 -0.00000 0.00000
										}
									}
								}
								JOINT RThumb
								{
									OFFSET 0 0 0
									CHANNELS 3 Zrotation Yrotation Xrotation
									End Site
									{
										OFFSET -0.57430 -0.00000 0.57430
									}
								}
							}
						}
					}
				}
			}
		}
	}
}
MOTION
Frames: 12
Frame Time: 0.166667
0.00 0.00 0.00 0 0 0 0 0 0 -21 0 0 0 0 0 0 0 0 0 0 0 0 0 0 21 0 0 0 0 0 0 0 0 0 0 0 0 0 0 0 0 0 0 0 0 0 0 -16 0 0 21 0 0 11 0 0 0 -8 0 0 0 0 0 0 0 0 0 0 0 0 0 0 0 0 0 0 0 0 8 0 0 0 0 0 0 0 0 0 0 0 0 0 0 0 0 0
0.00 0.00 0.00 -182.7910 60.6336 -180.9560 0.0000 0.0000 0.0000 -25.7388 -11.2426 -6.1599 2.2349 9.3392 26.8623 1.1199 -1.9406 -19.4513 0.0618 -1.6043 -4.4133 0.0000 0.0000 0.0000 16.7288 12.6521 -8.9100 -4.1946 -12.4150 37.2163 -1.0096 -13.8411 -28.5055 -0.0045 0.4345 -1.1938 -2.9888 0.8031 9.5400 -0.4365 0.6903 -1.4979 1.1171 0.4507 -6.9712 -11.0873 -5.5688 -12.5931 9.9518 -7.2292 26.2566 4.6249 -2.9416 11.3894 -0.0000 0.0000 0.0000 -90.4945 0.4467 19.4262 11.2554 -18.6787 -1.8569 -0.0000 -0.0000 6.0721 13.0536 11.7644 2.7065 -7.1250 0.0000 -0.0000 -12.5953 41.7081 1.0411 -0.0000 0.0000 0.0000 89.7140 -0.8903 27.0281 -14.2902 23.1480 -2.9412 0.0000 0.0000 11.9773 -18.5816 12.6040 -4.1956 7.1250 -0.0000 -0.0000 6.0137 -16.7532 4.0476
0.00 0.00 0.00 -182.1400 60.6075 -180.3730 0.0000 0.0000 0.0000 -26.6662 -9.9238 -5.0491 2.3092 9.4824 27.3163 1.2269 -3.2893 -20.1083 0.1442 -2.4473 -6.7435 0.0000 0.0000 0.0000 17.1261 15.5763 -20.0676 -8.7401 -16.6375 55.1868 0.2439 -18.7275 -24.3961 -0.3498 -3.8000 10.5146 -3.0586 0.2627 10.1180 -0.4295 -0.0459 -1.0434 1.2784 0.0884 -6.7853 -11.2975 -6.0002 -12.5388 7.7733 -7.1162 29.7023 3.9625 -3.0987 12.6638 0.0000 -0.0000 0.0000 -89.4003 -0.1695 12.2528 9.3537 -15.7223 -1.2943 -0.0000 -0.0000 12.6533 11.9427 11.2915 2.3715 -7.1250 0.0000 -0.0000 -13.4446 41.1358 1.3079 0.0000 -0.0000 0.0000 89.9187 -0.9635 26.5663 -14.5122 23.4622 -3.0291 0.0000 0.0000 11.5209 -18.5177 12.5605 -4.1660 7.1250 -0.0000 -0.0000 6.0573 -16.8039 4.0705
0.00 0.00 0.00 -184.5240 54.8830 -183.8820 0.0000 0.0000 0.0000 -29.1138 -3.2341 13.4493 0.1844 2.7660 7.6278 0.5298 -2.5621 -13.1093 0.0126 -0.7239 -1.9893 0.0000 0.0000 0.0000 13.9773 18.2167 -25.7839 -2.0373 -8.9433 25.6181 0.6484 -17.9197 -18.4947 -0.1025 2.0642 -5.6831 -4.9294 -0.6733 11.7922 -0.7511 -1.5005 0.9896 2.2303 -0.5946 -5.4691 -11.8693 -7.1871 -11.4285 6.8018 -8.4769 29.2665 3.4685 -3.9124 12.4137 -0.0000 0.0000 0.0000 -88.5472 -0.2452 16.6124 9.9007 -16.5841 -1.4465 -0.0000 -0.0000 9.6146 12.7604 11.2372 2.5270 -7.1250 0.0000 -0.0000 -12.7241 41.1557 1.2287 -0.0000 0.0000 0.0000 89.5519 -4.3424 18.1003 -12.8984 21.1382 -2.4165 0.0000 0.0000 15.2084 -17.7202 14.3249 -4.5203 7.1250 -0.0000 -0.0000 6.6417 -15.0423 4.7228
0.00 0.00 0.00 -181.3330 52.5352 -180.8480 0.0000 0.0000 0.0000 -23.0264 1.8132 15.1684 1.5214 7.7886 22.0738 -0.0004 3.8168 2.6569 0.5470 -4.7382 -13.1634 0.0000 0.0000 0.0000 19.8916 14.3124 -19.5304 -2.3168 -9.4968 27.3622 0.4995 -15.8432 -16.3812 -0.1264 -2.2922 6.3140 -2.4291 -1.0029 7.8064 0.0381 -1.5576 -0.6538 1.5907 -0.7006 -4.9956 -12.1394 -7.4514 -11.9298 5.3727 -8.2639 30.3174 3.0007 -3.9859 12.8849 0.0000 -0.0000 0.0000 -89.7179 4.5592 11.8953 10.3161 -17.2325 -1.5673 -0.0000 -0.0000 10.1929 13.1747 12.5494 2.9117 -7.1250 0.0000 -0.0000 -12.6833 42.5026 0.7955 0.0000 -0.0000 0.0000 87.8190 -8.1448 14.1056 -11.0974 18.4374 -1.8066 0.0000 0.0000 19.9486 -17.3874 15.1084 -4.6661 7.1250 -0.0000 -0.0000 6.8865 -14.2640 5.0144
0.00 0.00 0.00 -178.0360 52.4815 -179.0540 0.0000 0.0000 0.0000 -19.6268 0.9417 6.5457 4.8985 13.2686 40.3824 0.2339 8.8632 9.9152 0.1417 -2.4257 -6.6837 0.0000 0.0000 0.0000 24.0703 11.9028 -16.1013 -2.3760 -9.6088 27.7191 0.2792 -14.3144 -16.8146 -0.0341 -1.1919 3.2769 -0.6377 -1.0782 8.6803 0.6351 -1.4619 -0.8944 1.2186 -0.6864 -5.7745 -11.9557 -7.3476 -12.0735 5.0889 -8.0618 30.3294 2.8883 -3.9092 12.8737 0.0000 -0.0000 0.0000 -89.4919 5.0819 12.3391 11.0245 -18.3257 -1.7836 -0.0000 -0.0000 8.8042 13.0904 12.2452 2.8235 -7.1250 0.0000 -0.0000 -12.6809 42.1911 0.8946 0.0000 -0.0000 0.0000 87.2019 -7.7334 16.8063 -12.4114 20.4188 -2.2438 0.0000 0.0000 16.4527 -17.7361 14.5123 -4.5823 7.1250 -0.0000 -0.0000 6.6353 -14.8468 4.7461
0.00 0.00 0.00 -171.6380 52.9108 -174.8120 0.0000 0.0000 0.0000 -14.8304 -2.3800 -5.4508 10.1073 17.4698 59.8465 0.5942 20.8144 19.0102 0.0799 1.8229 5.0166 0.0000 0.0000 0.0000 30.0096 8.5626 -11.4130 -2.1227 -9.1171 26.1622 -0.1339 -11.6398 -18.2986 -0.0146 -0.7809 2.1461 3.3452 -0.6963 9.9515 1.5788 -0.3830 -0.7977 -0.1696 -0.2581 -6.4456 -12.2349 -7.5604 -12.1207 5.8375 -8.5255 30.3781 3.1539 -4.0461 13.0073 -0.0000 0.0000 0.0000 -89.2329 3.7469 14.0652 12.1366 -20.0092 -2.1488 -0.0000 -0.0000 6.6240 13.3721 12.2850 2.8956 -7.1250 0.0000 -0.0000 -12.4440 42.2583 0.8563 -0.0000 0.0000 0.0000 86.1502 -5.9281 20.9841 -14.1483 22.9463 -2.8857 0.0000 0.0000 12.2705 -18.2086 13.4170 -4.3648 7.1250 -0.0000 -0.0000 6.2875 -15.9393 4.3457
0.00 0.00 0.00 -170.5730 53.6506 -174.0060 0.0000 0.0000 0.0000 -13.8533 -5.5036 -15.5736 12.7169 18.6776 68.2440 -0.2572 12.0389 4.1954 0.1365 -2.3816 -6.5616 0.0000 0.0000 0.0000 31.7916 7.3905 -8.7347 -2.2034 -9.2775 26.6673 -0.4567 -10.5457 -20.6240 -0.0082 -0.5851 1.6077 3.7669 -0.1868 10.3177 1.5415 0.3656 -0.7910 -0.5611 0.0919 -6.6233 -12.2392 -7.7849 -11.7554 6.0116 -8.9406 30.2120 3.1615 -4.2125 12.9172 -0.0000 0.0000 0.0000 -88.7637 2.9403 16.6266 13.5813 -22.1330 -2.6683 -0.0000 -0.0000 3.0746 13.4599 12.2532 2.9079 -7.1250 0.0000 -0.0000 -12.3592 42.2353 0.8574 -0.0000 0.0000 0.0000 85.9457 -3.0135 23.5288 -14.6137 23.6052 -3.0696 0.0000 0.0000 11.0008 -17.8165 13.9260 -4.4228 7.1250 -0.0000 -0.0000 6.5672 -15.4464 4.6117
0.00 0.00 0.00 -169.4600 55.3673 -173.1610 0.0000 0.0000 0.0000 -12.2009 -12.4807 -27.4871 7.5494 15.7776 50.9230 0.2940 3.8371 -12.3886 0.6349 -5.0981 -14.1886 0.0000 0.0000 0.0000 34.5531 5.7042 -0.2823 -1.9160 -8.6889 24.8269 -0.8176 -11.0280 -24.3997 -0.0429 -1.3372 3.6771 4.4256 0.4867 11.1642 1.0350 1.3498 -0.6078 -1.6319 0.5364 -6.8454 -12.0931 -7.7149 -11.7288 6.9812 -9.2582 28.4312 3.4212 -4.2704 12.2533 -0.0000 0.0000 0.0000 -88.2850 2.4528 16.6388 14.4333 -23.3507 -2.9977 -0.0000 -0.0000 1.4529 13.1712 12.8174 2.9719 -7.1250 0.0000 -0.0000 -12.7546 42.7694 0.7146 -0.0000 0.0000 0.0000 87.1174 -0.3075 31.3127 -18.2356 28.4578 -4.6610 0.0000 0.0000 5.7802 -17.3219 12.1927 -3.7686 7.1250 -0.0000 -0.0000 6.8831 -17.2831 4.5606
0.00 0.00 0.00 -171.3880 58.3741 -173.7110 0.0000 0.0000 0.0000 -15.9880 -16.8808 -20.3473 2.6678 10.1368 29.4209 -0.3721 13.0681 -12.7669 0.0049 0.4513 1.2400 0.0000 0.0000 0.0000 27.5091 -4.6542 12.2317 -2.3477 -9.5556 27.5492 0.3324 -10.4002 -6.2178 -0.8293 5.8099 -16.2337 3.5555 1.5327 7.6179 0.4981 2.4219 -1.2551 -1.7712 1.0951 -5.4604 -12.5223 -8.0204 -11.8622 8.9931 -10.2439 23.6817 3.9808 -4.6579 10.7038 -0.0000 -0.0000 0.0000 -89.2106 4.3346 -2.5521 7.1960 -12.2413 -0.7727 -0.0000 -0.0000 23.6559 12.9847 11.4892 2.6297 -7.1250 0.0000 -0.0000 -12.5893 41.4274 1.1294 -0.0000 -0.0000 0.0000 89.4085 -4.6926 27.0832 -14.4521 23.3773 -3.0052 0.0000 0.0000 10.9600 -17.5797 13.4207 -4.2057 7.1250 -0.0000 -0.0000 6.7199 -15.9908 4.6411
0.00 0.00 0.00 -178.5060 58.2388 -179.2690 0.0000 0.0000 0.0000 -22.1993 -14.6703 -17.1545 2.6246 10.0610 29.1745 -0.1031 10.7327 -13.5922 0.0090 0.6117 1.6808 0.0000 0.0000 0.0000 22.5609 -2.3871 2.5464 -6.2730 -14.6878 46.0680 0.5723 -15.9295 3.5872 -0.2807 3.4074 -9.4150 -0.0991 1.4301 7.0654 -0.4272 1.8778 -1.7061 -0.6125 0.9224 -5.7302 -12.5980 -7.9652 -12.1841 8.7863 -10.0756 24.0322 3.9399 -4.5980 10.8686 -0.0000 -0.0000 0.0000 -88.7505 4.4274 -0.8601 7.6058 -12.9119 -0.8619 -0.0000 -0.0000 20.9024 12.5532 12.2913 2.7139 -7.1250 0.0000 -0.0000 -13.1626 42.1844 0.9320 -0.0000 -0.0000 0.0000 88.3248 -6.5627 28.6548 -13.9986 22.7327 -2.8276 0.0000 0.0000 11.5693 -17.2775 13.6239 -4.1902 7.1250 -0.0000 -0.0000 6.9308 -15.8070 4.8166
0.00 0.00 0.00 -192.2560 59.0306 -192.0980 0.0000 0.0000 0.0000 -34.1885 0.9354 10.0785 0.1554 2.5402 7.0010 0.0193 12.0414 -17.3873 0.1917 -2.8195 -7.7767 0.0000 0.0000 0.0000 18.1188 6.1695 -28.0838 -2.1852 -9.2417 26.5544 -0.6945 -21.6135 -34.8012 -0.8333 -5.8235 16.2731 -6.2003 -0.3765 8.4835 -1.8191 -1.1603 -0.3744 1.7292 -0.4070 -5.0752 -12.7627 -8.7507 -10.8318 10.0499 -11.6416 24.7858 4.2505 -5.1965 11.1816 0.0000 0.0000 0.0000 -85.2826 -1.2437 26.1826 16.3303 -25.9665 -3.7894 -0.0000 0.0000 -2.5337 12.2027 12.8951 2.7630 -7.1250 0.0000 -0.0000 -13.6269 42.7480 0.7727 0.0000 0.0000 0.0000 86.9816 -8.2114 29.1101 -17.4092 27.3941 -4.2739 0.0000 0.0000 7.7261 -17.7146 14.3152 -4.5158 7.1250 -0.0000 -0.0000 6.6454 -15.0528 4.7239
